<svg width="25" height="25" viewBox="0 0 25 25" fill="none" xmlns="http://www.w3.org/2000/svg">
<path fill-rule="evenodd" clip-rule="evenodd" d="M6.02457 1.02492C5.46973 1.03137 5.02644 1.48868 5.03726 2.04344V3.03856H4.04215C2.39902 3.03856 1.03925 4.39838 1.03925 6.04146V7.03657H23.0234V6.04146C23.0234 4.39838 21.6656 3.03856 20.0225 3.03856H19.0274V2.04344C19.0385 1.47638 18.5759 1.01379 18.0089 1.02492C17.4563 1.03458 17.0166 1.49093 17.0274 2.04344V3.03856H13.0313V2.04344C13.0423 1.4795 12.5846 1.01826 12.0206 1.02492C11.465 1.03029 11.0205 1.48792 11.0314 2.04344V3.03856H7.03529V2.04344C7.04629 1.4795 6.58858 1.01826 6.02457 1.02492ZM1.03925 9.0346V20.0238C1.03925 21.6668 2.39905 23.0247 4.04215 23.0247H20.0225C21.6656 23.0247 23.0234 21.6668 23.0234 20.0238V9.0346H1.03925ZM6.03823 13.0307C6.58997 13.0307 7.03724 13.4779 7.03724 14.0297C7.03724 14.5814 6.58997 15.0287 6.03823 15.0287C5.48648 15.0287 5.03921 14.5814 5.03921 14.0297C5.03921 13.4779 5.48648 13.0307 6.03823 13.0307ZM10.0343 13.0307C10.586 13.0307 11.0333 13.4779 11.0333 14.0297C11.0333 14.5814 10.586 15.0287 10.0343 15.0287C9.48255 15.0287 9.03527 14.5814 9.03527 14.0297C9.03527 13.4779 9.48255 13.0307 10.0343 13.0307ZM14.0303 13.0307C14.5821 13.0307 15.0294 13.4779 15.0294 14.0297C15.0294 14.5814 14.5821 15.0287 14.0303 15.0287C13.4786 15.0287 13.0313 14.5814 13.0313 14.0297C13.0313 13.4779 13.4786 13.0307 14.0303 13.0307ZM18.0264 13.0307C18.5782 13.0307 19.0254 13.4779 19.0254 14.0297C19.0254 14.5814 18.5782 15.0287 18.0264 15.0287C17.4747 15.0287 17.0274 14.5814 17.0274 14.0297C17.0274 13.4779 17.4747 13.0307 18.0264 13.0307ZM6.03823 17.0267C6.58997 17.0267 7.03724 17.474 7.03724 18.0257C7.03724 18.5775 6.58997 19.0248 6.03823 19.0248C5.48648 19.0248 5.03921 18.5775 5.03921 18.0257C5.03921 17.474 5.48648 17.0267 6.03823 17.0267ZM10.0343 17.0267C10.586 17.0267 11.0333 17.474 11.0333 18.0257C11.0333 18.5775 10.586 19.0248 10.0343 19.0248C9.48255 19.0248 9.03527 18.5775 9.03527 18.0257C9.03527 17.474 9.48255 17.0267 10.0343 17.0267ZM14.0303 17.0267C14.5821 17.0267 15.0294 17.474 15.0294 18.0257C15.0294 18.5775 14.5821 19.0248 14.0303 19.0248C13.4786 19.0248 13.0313 18.5775 13.0313 18.0257C13.0313 17.474 13.4786 17.0267 14.0303 17.0267ZM18.0264 17.0267C18.5782 17.0267 19.0254 17.474 19.0254 18.0257C19.0254 18.5775 18.5782 19.0248 18.0264 19.0248C17.4747 19.0248 17.0274 18.5775 17.0274 18.0257C17.0274 17.474 17.4747 17.0267 18.0264 17.0267Z" fill="black"/>
</svg>
