<svg width="22" height="22" viewBox="0 0 22 22" fill="none" xmlns="http://www.w3.org/2000/svg">
<g clip-path="url(#clip0_104_636)">
<path d="M11 0C8.82441 0 6.69767 0.645139 4.88873 1.85383C3.07979 3.06253 1.66989 4.7805 0.83733 6.79048C0.00476615 8.80047 -0.213071 11.0122 0.211367 13.146C0.635804 15.2798 1.68345 17.2398 3.22183 18.7782C4.76021 20.3166 6.72022 21.3642 8.85401 21.7886C10.9878 22.2131 13.1995 21.9952 15.2095 21.1627C17.2195 20.3301 18.9375 18.9202 20.1462 17.1113C21.3549 15.3023 22 13.1756 22 11C22 8.08262 20.8411 5.28473 18.7782 3.22183C16.7153 1.15893 13.9174 0 11 0V0ZM14.6085 18.0858H7.39155C7.14843 18.0858 6.91527 17.9893 6.74337 17.8174C6.57146 17.6454 6.47488 17.4123 6.47488 17.1692C6.47488 16.9261 6.57146 16.6929 6.74337 16.521C6.91527 16.3491 7.14843 16.2525 7.39155 16.2525H14.6085C14.8516 16.2525 15.0847 16.3491 15.2566 16.521C15.4286 16.6929 15.5251 16.9261 15.5251 17.1692C15.5251 17.4123 15.4286 17.6454 15.2566 17.8174C15.0847 17.9893 14.8516 18.0858 14.6085 18.0858ZM15.2565 11.1907L11.6453 14.8042C11.4734 14.976 11.2403 15.0726 10.9973 15.0726C10.7542 15.0726 10.5211 14.976 10.3492 14.8042L6.74346 11.1989C6.57122 11.027 6.4743 10.7938 6.47405 10.5504C6.47379 10.3071 6.57021 10.0736 6.74209 9.90138C6.91397 9.72913 7.14724 9.63222 7.39057 9.63196C7.63391 9.6317 7.86738 9.72812 8.03963 9.9L10.0833 11.9437V3.83396C10.0833 3.59084 10.1799 3.35769 10.3518 3.18578C10.5237 3.01387 10.7569 2.91729 11 2.91729C11.2431 2.91729 11.4763 3.01387 11.6482 3.18578C11.8201 3.35769 11.9167 3.59084 11.9167 3.83396V11.9382L13.9604 9.8945C14.1333 9.72752 14.3648 9.63513 14.6052 9.63722C14.8455 9.6393 15.0754 9.73571 15.2454 9.90567C15.4153 10.0756 15.5117 10.3055 15.5138 10.5459C15.5159 10.7862 15.4235 11.0178 15.2565 11.1907Z" fill="black"/>
</g>
<defs>
<clipPath id="clip0_104_636">
<rect width="22" height="22" fill="white"/>
</clipPath>
</defs>
</svg>
