<svg width="9" height="9" viewBox="0 0 9 9" fill="none" xmlns="http://www.w3.org/2000/svg">
<path d="M8.28 3.18543L8.28 3.18371C8.28112 2.64185 8.07292 2.12084 7.69944 1.72995C7.32764 1.34286 6.8242 1.12719 6.29999 1.12705C6.03845 1.12781 5.77972 1.18147 5.53926 1.28485C5.29864 1.38831 5.08125 1.53945 4.90012 1.72927L4.89866 1.73081L4.89865 1.73081L4.78788 1.84568C4.71258 1.92376 4.6088 1.96791 4.50033 1.96801C4.39185 1.96811 4.28799 1.92416 4.21255 1.84622L4.10136 1.73135L4.09874 1.72865L4.09876 1.72864C3.91821 1.53858 3.70113 1.38735 3.46071 1.28403C3.22029 1.18072 2.9615 1.12747 2.70002 1.12747C2.43854 1.12747 2.17975 1.18072 1.93933 1.28403C1.69891 1.38735 1.48183 1.53858 1.30129 1.72864L1.29952 1.73049C0.526874 2.5335 0.526783 3.83553 1.29957 4.63905L8.28 3.18543ZM8.28 3.18543C8.28121 3.72721 8.07317 4.24819 7.69986 4.63913C7.35451 4.99827 7.01618 5.35867 6.67954 5.71727C6.00842 6.43218 5.34403 7.13992 4.64413 7.81617C4.56032 7.89479 4.42782 7.89113 4.34891 7.80922C4.34889 7.80919 4.34886 7.80917 4.34884 7.80914L1.29958 4.63907L8.28 3.18543Z" fill="white" stroke="white" stroke-width="0.8" stroke-linejoin="round"/>
</svg>
