<svg width="22" height="22" viewBox="0 0 22 22" fill="none" xmlns="http://www.w3.org/2000/svg">
<path fill-rule="evenodd" clip-rule="evenodd" d="M4.29688 0H17.7031C18.8421 0.00219179 19.9337 0.455601 20.7391 1.26095C21.5444 2.06629 21.9978 3.15795 22 4.29688V17.7031C21.9978 18.8421 21.5444 19.9337 20.7391 20.7391C19.9337 21.5444 18.8421 21.9978 17.7031 22H4.29688C3.15795 21.9978 2.06629 21.5444 1.26095 20.7391C0.455601 19.9337 0.00219179 18.8421 0 17.7031L0 4.29688C0.00219179 3.15795 0.455601 2.06629 1.26095 1.26095C2.06629 0.455601 3.15795 0.00219179 4.29688 0V0ZM4.55469 16.6397C4.55474 16.8533 4.63965 17.0582 4.79073 17.2093C4.94181 17.3604 5.1467 17.4453 5.36035 17.4453H9.577C9.68351 17.4464 9.78917 17.4264 9.88788 17.3864C9.98659 17.3464 10.0764 17.2872 10.1521 17.2123C10.2278 17.1374 10.2879 17.0482 10.3289 16.9499C10.3699 16.8516 10.391 16.7462 10.391 16.6396C10.391 16.5331 10.3699 16.4277 10.3289 16.3294C10.2879 16.2311 10.2278 16.1419 10.1521 16.067C10.0764 15.9921 9.98659 15.9329 9.88788 15.8929C9.78917 15.8529 9.68351 15.8329 9.577 15.834H7.30546L10.3047 12.8348C10.4558 12.6837 10.5407 12.4787 10.5407 12.265C10.5408 12.0513 10.4559 11.8463 10.3048 11.6952C10.23 11.6204 10.1411 11.561 10.0434 11.5205C9.94563 11.48 9.84085 11.4592 9.73503 11.4592C9.52133 11.4591 9.31636 11.544 9.16523 11.6951L6.16602 14.6948V12.423C6.16382 12.2108 6.07798 12.008 5.92712 11.8587C5.77627 11.7094 5.5726 11.6256 5.36035 11.6256C5.14811 11.6256 4.94443 11.7094 4.79358 11.8587C4.64273 12.008 4.55688 12.2108 4.55469 12.423V16.6397ZM17.4453 5.36039C17.4453 5.14673 17.3604 4.94183 17.2093 4.79074C17.0582 4.63965 16.8533 4.55474 16.6396 4.55469H12.423C12.3165 4.55359 12.2108 4.57361 12.1121 4.61361C12.0134 4.6536 11.9236 4.71277 11.8479 4.7877C11.7722 4.86262 11.7121 4.95181 11.6711 5.0501C11.6301 5.14839 11.609 5.25384 11.609 5.36035C11.609 5.46686 11.6301 5.57231 11.6711 5.6706C11.7121 5.7689 11.7722 5.85809 11.8479 5.93301C11.9236 6.00793 12.0134 6.0671 12.1121 6.10709C12.2108 6.14709 12.3165 6.16712 12.423 6.16602H14.6948L11.6951 9.16523C11.544 9.31636 11.4591 9.52134 11.4591 9.73506C11.4591 9.94879 11.544 10.1538 11.6951 10.3049C11.8462 10.456 12.0512 10.5409 12.2649 10.5409C12.4787 10.5409 12.6836 10.456 12.8348 10.3049L15.834 7.30525V9.57705C15.8362 9.78928 15.922 9.99208 16.0729 10.1414C16.2237 10.2907 16.4274 10.3744 16.6396 10.3744C16.8519 10.3744 17.0556 10.2907 17.2064 10.1414C17.3573 9.99208 17.4431 9.78928 17.4453 9.57705V5.36039Z" fill="black"/>
</svg>
